<svg width="171" height="36" viewBox="0 0 261 55" fill="none" xmlns="http://www.w3.org/2000/svg">
<path d="M12.4789 43.7765H23.3389C31.2889 43.7765 35.0089 41.0069 35.0089 33.739C35.0089 29.2899 32.4089 26.3828 28.9789 25.6756C31.5889 23.9471 31.9789 21.973 31.9789 19.9989C31.9789 14.9605 28.2089 11.4346 22.2689 11.4346H12.4789V43.7765ZM18.3389 29.2015H23.3389C27.6189 29.2015 28.6789 30.6748 28.6789 33.8667C28.6789 36.931 27.9989 38.5221 23.4189 38.5221H18.3389V29.2015ZM22.2689 16.3944C25.1789 16.3944 25.8989 18.4471 25.8989 20.0872C25.8989 22.1497 24.7489 23.8685 22.3089 23.8685H18.3789V16.3944H22.2689ZM51.2189 11.4739H45.3589L36.2489 43.7765H42.3289L44.0389 38.0605H52.4589L54.1289 43.7765H60.1989L51.2189 11.4739ZM45.4889 32.3935L48.2289 20.4212L50.9689 32.3935H45.4889ZM80.4289 11.5622H60.9289V16.7283H67.7689V43.7765H73.6289V16.7283H80.4289V11.5622ZM99.2889 33.906C99.2889 36.9703 97.6189 38.9444 94.1189 38.9444C90.6089 38.9444 89.2389 36.9703 89.2389 33.906V11.4739H83.3389V34.2006C83.3389 40.8792 87.1889 44.0712 94.1189 44.0712C101.049 44.0712 105.189 40.8792 105.189 34.2006V11.4739H99.2889V33.906ZM124.099 36.1355L130.639 23.1122L129.959 32.3542V43.7765H135.859V11.4346H130.169L123.409 25.7542L116.699 11.4346H111.009V43.7765H116.909V32.3542L116.229 23.1122L122.769 36.1355H124.099ZM147.749 11.4739H141.799V43.8158H147.749V11.4739Z" fill="#14B8A6"/>
<path d="M246.525 6.10352H152.745V48.8955H246.525V6.10352Z" fill="#14B8A6"/>
<path d="M176.737 20.0484C176.567 13.91 174.597 11.0127 167.327 11.0127C159.367 11.0127 157.747 14.2439 157.747 21.8556V33.1895C157.747 40.585 159.497 43.9832 167.327 43.9832C175.147 43.9832 176.857 40.585 176.857 33.9064V26.9332H167.367V28.8288H174.937V33.9064C174.937 39.1609 173.697 41.8913 167.327 41.8913C160.097 41.8913 159.887 38.1493 159.887 33.1895V21.8064C159.887 16.3064 160.097 12.9082 167.327 12.9082C173.137 12.9082 174.637 14.9609 174.807 20.0877L176.737 20.0484ZM198.027 23.3189V20.8439C198.027 13.3698 195.507 11.3466 190.117 11.3466H182.167V43.777H184.427V31.8047H189.217L195.977 43.777H198.627L191.657 31.7654C195.977 31.3823 198.027 29.2904 198.027 23.3189ZM184.427 29.8306V13.4975H190.117C195.037 13.4975 195.897 15.5502 195.897 20.8439V23.2797C195.897 28.4457 194.737 29.8306 190.117 29.8306H184.427ZM204.237 35.7922H214.797L216.937 43.777H219.197L210.737 11.3466H208.377L199.917 43.777H202.137L204.237 35.7922ZM209.617 14.4207L214.327 33.8181H204.747L209.577 14.4207H209.617ZM231.687 36.3814H232.417L239.597 16.5127L239.347 25.0475V43.777H241.527V11.3466H239.177L232.027 31.7654L224.927 11.3466H222.577V43.777H224.807V25.0475L224.507 16.5127L231.687 36.3814Z" fill="white"/>
</svg>
